<?xml version="1.0" encoding="utf-8"?>
<!-- generated at drububu.com  -->
<!DOCTYPE svg PUBLIC "-//W3C//DTD SVG 1.1//EN" "http://www.w3.org/Graphics/SVG/1.1/DTD/svg11.dtd">
<svg version="1.1" preserveAspectRatio="xMinYMin meet" xmlns="http://www.w3.org/2000/svg" xmlns:xlink="http://www.w3.org/1999/xlink" x="0px" y="0px" width="432px" height="432px" viewBox="0 0 432 432">
<path d="M0 0h432v432h-432v-432z" fill="none"/>
<path d="M171 45h9v54h9v9h-27v-9h9v-36h-9v-9h9v-9z" fill="rgb(48,20,20)"/>
<path d="M243 45h9v9h9v9h-9v36h9v9h-27v-9h9v-54z" fill="rgb(48,20,20)"/>
<path d="M153 63h9v27h-9v-27z" fill="rgb(48,20,20)"/>
<path d="M162 63h9v18h-9v-18z" fill="rgb(217,87,99)"/>
<path d="M252 63h9v18h-9v-18z" fill="rgb(217,87,99)"/>
<path d="M261 63h9v27h-9v-27z" fill="rgb(48,20,20)"/>
<path d="M162 81h9v9h-9v-9z" fill="rgb(172,50,50)"/>
<path d="M252 81h9v9h-9v-9z" fill="rgb(172,50,50)"/>
<path d="M144 90h9v27h-9v18h-9v-27h9v-18z" fill="rgb(48,20,20)"/>
<path d="M153 90h18v9h-9v18h-9v-27z" fill="rgb(117,47,47)"/>
<path d="M189 90h45v9h-45v-9z" fill="rgb(48,20,20)"/>
<path d="M252 90h18v27h-9v-18h-9v-9z" fill="rgb(117,47,47)"/>
<path d="M270 90h9v18h9v27h-9v-18h-9v-27z" fill="rgb(48,20,20)"/>
<path d="M189 99h45v9h-45v-9z" fill="rgb(217,87,99)"/>
<path d="M162 108h9v9h18v-9h45v9h18v-9h9v9h9v18h-9v-9h-27v9h-9v9h-27v-9h-9v-9
	h-27v9h-9v-18h9v-9z" fill="rgb(172,50,50)"/>
<path d="M171 108h18v9h-18v-9z" fill="rgb(217,87,99)"/>
<path d="M234 108h18v9h-18v-9z" fill="rgb(217,87,99)"/>
<path d="M144 117h9v18h-9v-18z" fill="rgb(117,47,47)"/>
<path d="M207 117h9v9h-9v-9z" fill="rgb(217,87,99)"/>
<path d="M270 117h9v18h-9v-18z" fill="rgb(117,47,47)"/>
<path d="M162 126h27v9h-27v-9z" fill="rgb(48,20,20)"/>
<path d="M198 126h9v9h-9v-9z" fill="rgb(217,87,99)"/>
<path d="M234 126h27v9h-27v-9z" fill="rgb(48,20,20)"/>
<path d="M126 135h9v63h-9v-63z" fill="rgb(48,20,20)"/>
<path d="M135 135h9v45h9v9h9v9h-18v9h-9v18h-9v-27h9v-63z" fill="rgb(117,47,47)"/>
<path d="M144 135h9v9h-9v-9z" fill="rgb(172,50,50)"/>
<path d="M153 135h9v9h-9v-9z" fill="rgb(48,20,20)"/>
<path d="M162 135h27v9h-27v-9z" fill="rgb(238,195,154)"/>
<path d="M189 135h9v9h-9v-9z" fill="rgb(48,20,20)"/>
<path d="M225 135h9v9h-9v-9z" fill="rgb(48,20,20)"/>
<path d="M234 135h27v9h-27v-9z" fill="rgb(238,195,154)"/>
<path d="M261 135h9v9h-9v-9z" fill="rgb(48,20,20)"/>
<path d="M270 135h9v9h-9v-9z" fill="rgb(172,50,50)"/>
<path d="M279 135h9v63h9v27h-9v-18h-9v-9h-18v-9h9v-9h9v-45z" fill="rgb(117,47,47)"/>
<path d="M288 135h9v63h-9v-63z" fill="rgb(48,20,20)"/>
<path d="M144 144h9v36h-9v-36z" fill="rgb(48,20,20)"/>
<path d="M153 144h9v9h-9v-9z" fill="rgb(238,195,154)"/>
<path d="M162 144h36v9h27v-9h36v9h9v9h-9v18h-18v-9h9v-9h-9v-9h-9v9h-9v9h9v18h-9
	v-9h-27v9h-9v-18h9v-9h-9v-9h-9v9h-9v9h9v9h-18v-18h-9v-9h9v-9z" fill="rgb(217,160,102)"/>
<path d="M198 144h27v9h-27v-9z" fill="rgb(48,20,20)"/>
<path d="M261 144h9v9h-9v-9z" fill="rgb(238,195,154)"/>
<path d="M270 144h9v36h-9v-36z" fill="rgb(48,20,20)"/>
<path d="M180 153h9v9h-9v-9z" fill="rgb(0,0,0)"/>
<path d="M234 153h9v9h-9v-9z" fill="rgb(0,0,0)"/>
<path d="M153 162h9v18h-9v-18z" fill="rgb(143,86,59)"/>
<path d="M171 162h9v9h-9v-9z" fill="rgb(0,0,0)"/>
<path d="M180 162h9v9h-9v-9z" fill="none"/>
<path d="M189 162h9v9h-9v-9z" fill="rgb(0,0,0)"/>
<path d="M225 162h9v9h-9v-9z" fill="rgb(0,0,0)"/>
<path d="M234 162h9v9h-9v-9z" fill="none"/>
<path d="M243 162h9v9h-9v-9z" fill="rgb(0,0,0)"/>
<path d="M261 162h9v18h-9v-18z" fill="rgb(143,86,59)"/>
<path d="M180 171h9v9h-9v-9z" fill="rgb(0,0,0)"/>
<path d="M234 171h9v9h-9v-9z" fill="rgb(0,0,0)"/>
<path d="M153 180h9v9h-9v-9z" fill="rgb(48,20,20)"/>
<path d="M162 180h27v9h-27v-9z" fill="rgb(143,86,59)"/>
<path d="M198 180h27v9h-27v-9z" fill="rgb(48,20,20)"/>
<path d="M234 180h27v9h-27v-9z" fill="rgb(143,86,59)"/>
<path d="M261 180h9v9h-9v-9z" fill="rgb(48,20,20)"/>
<path d="M162 189h36v18h-9v-9h-27v-9z" fill="rgb(48,20,20)"/>
<path d="M198 189h18v18h-18v-18z" fill="rgb(251,214,54)"/>
<path d="M216 189h9v18h-9v-18z" fill="rgb(207,182,70)"/>
<path d="M225 189h36v9h-27v9h-9v-18z" fill="rgb(48,20,20)"/>
<path d="M117 198h9v27h-9v-27z" fill="rgb(48,20,20)"/>
<path d="M144 198h18v9h9v9h-9v9h-9v18h-9v-27h-9v-9h9v-9z" fill="rgb(172,50,50)"/>
<path d="M162 198h27v9h-9v9h-9v-9h-9v-9z" fill="rgb(117,47,47)"/>
<path d="M234 198h27v9h-9v9h-9v-9h-9v-9z" fill="rgb(117,47,47)"/>
<path d="M261 198h18v9h9v9h-9v27h-9v-18h-9v-9h-9v-9h9v-9z" fill="rgb(172,50,50)"/>
<path d="M297 198h9v27h-9v-27z" fill="rgb(48,20,20)"/>
<path d="M180 207h9v9h9v9h9v18h-18v9h-9v-18h-9v-18h9v-9z" fill="rgb(172,50,50)"/>
<path d="M189 207h9v9h-9v-9z" fill="rgb(117,47,47)"/>
<path d="M198 207h9v9h-9v-9z" fill="rgb(48,20,20)"/>
<path d="M207 207h9v9h-9v-9z" fill="rgb(207,182,70)"/>
<path d="M216 207h9v9h-9v-9z" fill="rgb(48,20,20)"/>
<path d="M225 207h9v9h-9v-9z" fill="rgb(117,47,47)"/>
<path d="M234 207h9v9h9v18h-9v18h-9v-9h-18v-18h9v-9h9v-9z" fill="rgb(172,50,50)"/>
<path d="M135 216h9v18h-9v-18z" fill="rgb(217,87,99)"/>
<path d="M162 216h9v9h-9v-9z" fill="rgb(117,47,47)"/>
<path d="M198 216h9v9h-9v-9z" fill="rgb(117,47,47)"/>
<path d="M207 216h9v9h-9v-9z" fill="rgb(48,20,20)"/>
<path d="M216 216h9v9h-9v-9z" fill="rgb(117,47,47)"/>
<path d="M252 216h9v9h-9v-9z" fill="rgb(117,47,47)"/>
<path d="M279 216h9v18h-9v-18z" fill="rgb(217,87,99)"/>
<path d="M108 225h9v18h-9v-18z" fill="rgb(48,20,20)"/>
<path d="M117 225h9v18h-9v-18z" fill="rgb(117,47,47)"/>
<path d="M126 225h9v9h-9v-9z" fill="rgb(172,50,50)"/>
<path d="M153 225h9v27h-18v-9h9v-18z" fill="rgb(117,47,47)"/>
<path d="M162 225h9v9h-9v-9z" fill="rgb(217,87,99)"/>
<path d="M207 225h9v9h-9v-9z" fill="rgb(117,47,47)"/>
<path d="M252 225h9v9h-9v-9z" fill="rgb(217,87,99)"/>
<path d="M261 225h9v18h9v9h-18v-27z" fill="rgb(117,47,47)"/>
<path d="M288 225h9v9h-9v-9z" fill="rgb(172,50,50)"/>
<path d="M297 225h9v18h-9v-18z" fill="rgb(117,47,47)"/>
<path d="M306 225h9v18h-9v-18z" fill="rgb(48,20,20)"/>
<path d="M126 234h9v9h-9v-9z" fill="rgb(217,87,99)"/>
<path d="M135 234h9v18h-9v27h-9v-9h-18v-9h18v-9h-9v-9h18v-9z" fill="rgb(48,20,20)"/>
<path d="M162 234h9v18h-9v-18z" fill="rgb(48,20,20)"/>
<path d="M171 234h9v18h-9v-18z" fill="rgb(217,87,99)"/>
<path d="M207 234h9v9h-9v-9z" fill="rgb(217,87,99)"/>
<path d="M243 234h9v18h-9v-18z" fill="rgb(217,87,99)"/>
<path d="M252 234h9v18h-9v-18z" fill="rgb(48,20,20)"/>
<path d="M279 234h9v9h18v9h-9v9h18v9h-18v18h-9v-36h-9v-18z" fill="rgb(48,20,20)"/>
<path d="M288 234h9v9h-9v-9z" fill="rgb(217,87,99)"/>
<path d="M99 243h9v18h-9v-18z" fill="rgb(48,20,20)"/>
<path d="M108 243h9v9h9v9h-18v-18z" fill="rgb(117,47,47)"/>
<path d="M189 243h9v18h-18v-9h9v-9z" fill="rgb(217,87,99)"/>
<path d="M198 243h27v18h-9v-9h-9v9h-9v-18z" fill="rgb(48,20,20)"/>
<path d="M225 243h9v9h9v9h-18v-18z" fill="rgb(217,87,99)"/>
<path d="M306 243h9v18h-18v-9h9v-9z" fill="rgb(117,47,47)"/>
<path d="M315 243h9v18h-9v-18z" fill="rgb(48,20,20)"/>
<path d="M135 252h9v72h-9v-72z" fill="rgb(143,86,59)"/>
<path d="M144 252h18v9h-18v-9z" fill="rgb(48,20,20)"/>
<path d="M162 252h9v9h-9v-9z" fill="rgb(212,185,160)"/>
<path d="M171 252h9v9h-9v-9z" fill="rgb(48,20,20)"/>
<path d="M207 252h9v9h-9v-9z" fill="rgb(212,185,160)"/>
<path d="M243 252h9v9h-9v-9z" fill="rgb(48,20,20)"/>
<path d="M252 252h9v9h-9v-9z" fill="rgb(212,185,160)"/>
<path d="M261 252h18v9h-18v-9z" fill="rgb(48,20,20)"/>
<path d="M279 252h9v36h9v18h9v36h-9v-18h-9v-9h-9v-63z" fill="rgb(102,57,49)"/>
<path d="M144 261h9v54h18v9h9v18h-27v9h-9v-18h-9v-9h9v-63z" fill="rgb(102,57,49)"/>
<path d="M153 261h9v54h-9v-54z" fill="rgb(212,185,160)"/>
<path d="M162 261h9v36h18v-27h18v-9h9v9h18v27h18v-36h9v9h9v9h-9v27h-18v18h-9v9
	h-45v-9h-9v-9h-18v-54z" fill="rgb(242,223,206)"/>
<path d="M171 261h9v9h-9v-9z" fill="rgb(212,185,160)"/>
<path d="M180 261h18v9h-18v-9z" fill="rgb(48,20,20)"/>
<path d="M198 261h9v9h-9v-9z" fill="rgb(212,185,160)"/>
<path d="M216 261h9v9h-9v-9z" fill="rgb(212,185,160)"/>
<path d="M225 261h18v9h-18v-9z" fill="rgb(48,20,20)"/>
<path d="M243 261h9v9h-9v-9z" fill="rgb(212,185,160)"/>
<path d="M261 261h9v9h-9v-9z" fill="rgb(212,185,160)"/>
<path d="M270 261h9v54h-9v-54z" fill="rgb(143,86,59)"/>
<path d="M171 270h18v9h-18v-9z" fill="rgb(0,0,0)"/>
<path d="M234 270h18v9h-18v-9z" fill="rgb(0,0,0)"/>
<path d="M117 279h9v36h-9v-36z" fill="rgb(48,20,20)"/>
<path d="M126 279h9v45h-9v18h-9v-27h9v-36z" fill="rgb(102,57,49)"/>
<path d="M171 279h9v18h-9v-18z" fill="none"/>
<path d="M180 279h9v18h-9v-18z" fill="rgb(55,148,110)"/>
<path d="M234 279h9v18h-9v-18z" fill="rgb(63,63,116)"/>
<path d="M243 279h9v18h-9v-18z" fill="none"/>
<path d="M261 279h9v27h-9v-27z" fill="rgb(212,185,160)"/>
<path d="M297 288h9v18h-9v-18z" fill="rgb(48,20,20)"/>
<path d="M198 306h27v9h-27v-9z" fill="rgb(212,185,160)"/>
<path d="M243 306h9v9h-9v-9z" fill="rgb(212,185,160)"/>
<path d="M252 306h18v9h9v9h9v9h-18v9h-27v-27h9v-9z" fill="rgb(102,57,49)"/>
<path d="M306 306h9v45h-9v-45z" fill="rgb(48,20,20)"/>
<path d="M108 315h9v36h-9v-36z" fill="rgb(48,20,20)"/>
<path d="M171 315h9v9h-9v-9z" fill="rgb(212,185,160)"/>
<path d="M279 315h9v9h-9v-9z" fill="rgb(143,86,59)"/>
<path d="M126 324h9v9h9v18h9v9h-9v9h-18v-18h-9v-9h9v-18z" fill="rgb(143,86,59)"/>
<path d="M180 324h9v9h-9v-9z" fill="rgb(212,185,160)"/>
<path d="M234 324h9v9h-9v-9z" fill="rgb(212,185,160)"/>
<path d="M288 324h9v18h9v9h-27v-9h-9v-9h18v-9z" fill="rgb(143,86,59)"/>
<path d="M180 333h63v9h-63v-9z" fill="rgb(48,20,20)"/>
<path d="M153 342h18v9h-18v-9z" fill="rgb(143,86,59)"/>
<path d="M171 342h9v9h-9v-9z" fill="rgb(48,20,20)"/>
<path d="M243 342h36v9h-36v-9z" fill="rgb(48,20,20)"/>
<path d="M117 351h9v18h-9v-18z" fill="rgb(48,20,20)"/>
<path d="M153 351h18v9h-18v-9z" fill="rgb(48,20,20)"/>
<path d="M279 351h27v9h-27v-9z" fill="rgb(48,20,20)"/>
<path d="M144 360h9v9h-9v-9z" fill="rgb(48,20,20)"/>
<path d="M126 369h18v9h-18v-9z" fill="rgb(48,20,20)"/>
</svg>